<svg width="12" height="15" viewBox="0 0 12 15" fill="none" xmlns="http://www.w3.org/2000/svg">
<path d="M7.88594 2.26385C8.3266 1.7344 8.63873 1.01325 8.63873 0.282981C8.63873 0.182568 8.62955 0.0821557 8.61119 0C7.89512 0.0273852 7.03217 0.474677 6.51807 1.07715C6.11413 1.53357 5.73774 2.26384 5.73774 2.99412C5.73774 3.10366 5.7561 3.2132 5.76528 3.24971C5.81118 3.25884 5.88462 3.26797 5.95806 3.26797C6.60069 3.26797 7.40856 2.83893 7.88594 2.26385ZM8.39086 3.42315C7.31676 3.42315 6.44462 4.07127 5.88462 4.07127C5.2879 4.07127 4.50757 3.45967 3.57117 3.45967C1.79935 3.45967 0 4.92021 0 7.66786C0 9.384 0.660987 11.1914 1.48722 12.3599C2.19411 13.3457 2.8092 14.1582 3.69969 14.1582C4.58101 14.1582 4.96658 13.5739 6.05905 13.5739C7.16987 13.5739 7.41774 14.1399 8.39086 14.1399C9.3548 14.1399 9.99743 13.2636 10.6033 12.3964C11.2827 11.4014 11.5673 10.4338 11.5765 10.3881C11.5214 10.3699 9.67612 9.62134 9.67612 7.52181C9.67612 5.70525 11.1266 4.89283 11.2092 4.82893C10.2545 3.45967 8.7948 3.42315 8.39086 3.42315Z" fill="black"/>
</svg>
