<svg width="22" height="22" viewBox="0 0 22 22" fill="none" xmlns="http://www.w3.org/2000/svg">
<path d="M21.1893 10.992C21.1893 10.2065 21.1185 9.45488 20.9871 8.73212H10.8201V12.873L16.6755 12.8742C16.438 14.252 15.6737 15.4265 14.5026 16.2095V18.896H17.9881C20.0233 17.0251 21.1893 14.2595 21.1893 10.992Z" fill="#4285F4"/>
<path d="M14.5039 16.2095C13.5337 16.8595 12.2843 17.2397 10.8227 17.2397C7.99922 17.2397 5.604 15.35 4.74622 12.8027H1.15088V15.5733C2.93213 19.0843 6.59317 21.4935 10.8227 21.4935C13.746 21.4935 16.2018 20.5386 17.9894 18.8948L14.5039 16.2095Z" fill="#34A853"/>
<path d="M4.40764 10.7474C4.40764 10.0322 4.52766 9.34076 4.74621 8.69077V5.92017H1.15086C0.41436 7.37197 0 9.01075 0 10.7474C0 12.484 0.415623 14.1228 1.15086 15.5746L4.74621 12.804C4.52766 12.154 4.40764 11.4626 4.40764 10.7474Z" fill="#FABB05"/>
<path d="M10.8227 4.25378C12.4182 4.25378 13.847 4.79962 14.9751 5.8662L18.0639 2.80072C16.1879 1.06533 13.7422 0 10.8227 0C6.59443 0 2.93213 2.40922 1.15088 5.92016L4.74622 8.69077C5.604 6.14352 7.99922 4.25378 10.8227 4.25378Z" fill="#E94235"/>
</svg>
