<svg xmlns="http://www.w3.org/2000/svg" xmlns:xlink="http://www.w3.org/1999/xlink" version="1.1" width="256" height="256" viewBox="0 0 256 256" xml:space="preserve">
<g style="stroke: none; stroke-width: 0; stroke-dasharray: none; stroke-linecap: butt; stroke-linejoin: miter; stroke-miterlimit: 10; fill: none; fill-rule: nonzero; opacity: 1;" transform="translate(1.4065934065934016 1.4065934065934016) scale(2.81 2.81)">
	<path d="M 9.195 40.861 c 0 0 8.137 -12.006 24.385 -13.248 v -4.356 C 15.584 24.702 0 39.944 0 39.944 S 8.826 65.46 33.58 67.796 v -4.63 C 15.415 60.881 9.195 40.861 9.195 40.861 z M 33.58 53.959 v 4.24 C 19.851 55.751 16.04 41.48 16.04 41.48 s 6.592 -7.302 17.54 -8.487 v 4.653 c -0.008 0 -0.014 -0.003 -0.021 -0.003 c -5.746 -0.69 -10.235 4.678 -10.235 4.678 S 25.84 51.358 33.58 53.959 M 33.58 15.223 v 8.034 c 0.528 -0.04 1.057 -0.075 1.588 -0.093 c 20.46 -0.69 33.79 16.78 33.79 16.78 S 53.647 58.562 37.696 58.562 c -1.462 0 -2.831 -0.136 -4.116 -0.363 v 4.968 c 1.099 0.14 2.239 0.222 3.428 0.222 c 14.844 0 25.578 -7.581 35.973 -16.553 c 1.723 1.38 8.779 4.738 10.229 6.208 c -9.883 8.274 -32.916 14.944 -45.974 14.944 c -1.259 0 -2.468 -0.076 -3.656 -0.191 v 6.981 H 90 V 15.223 H 33.58 z M 33.58 32.993 v -5.38 c 0.523 -0.037 1.05 -0.065 1.588 -0.082 c 14.712 -0.462 24.365 12.643 24.365 12.643 S 49.107 54.654 37.929 54.654 c -1.609 0 -3.051 -0.259 -4.349 -0.695 V 37.646 c 5.728 0.692 6.88 3.222 10.324 8.962 l 7.659 -6.458 c 0 0 -5.591 -7.332 -15.015 -7.332 C 35.523 32.818 34.543 32.89 33.58 32.993" style="stroke: none; stroke-width: 1; stroke-dasharray: none; stroke-linecap: butt; stroke-linejoin: miter; stroke-miterlimit: 10; fill: rgb(119,185,0); fill-rule: nonzero; opacity: 1;" transform=" matrix(1 0 0 1 0 0) " stroke-linecap="round"/>
</g>
</svg>