<svg width="131" height="130" viewBox="0 0 131 130" fill="none" xmlns="http://www.w3.org/2000/svg">
<path d="M65.2857 130L83.5504 27.2781C100.96 27.2781 106.451 29.1872 107.244 36.9794C107.244 36.9794 118.923 32.6248 124.813 23.7808C101.828 13.1296 78.732 12.6493 78.732 12.6493L65.2553 29.0636L65.2857 29.0616L51.8091 12.6467C51.8091 12.6467 28.713 13.1276 5.73022 23.7787C11.6154 32.6228 23.2989 36.9774 23.2989 36.9774C24.0964 29.1846 29.581 27.2756 46.8737 27.2632L65.2857 130Z" fill="#E82127"/>
<path d="M65.2785 7.90806C83.8594 7.76596 105.127 10.7824 126.899 20.2716C129.809 15.0341 130.557 12.7193 130.557 12.7193C106.757 3.30326 84.469 0.080831 65.276 0C46.084 0.080831 23.7968 3.30378 0 12.7193C0 12.7193 1.06161 15.5705 3.65542 20.2716C25.4232 10.7824 46.6946 7.76596 65.276 7.90806H65.2785Z" fill="#E82127"/>
</svg>
